<svg xmlns="http://www.w3.org/2000/svg" xmlns:xlink="http://www.w3.org/1999/xlink" version="1.1" id="Arrows" x="0px" y="0px" width="47.9px" height="11px" viewBox="0 0 47.9 11" enable-background="new 0 0 47.9 11" xml:space="preserve">
<path d="M41.4,0.2c-0.2,0.2-0.2,0.5,0,0.7L46.1,5H0.5C0.2,5,0,5.2,0,5.5S0.2,6,0.5,6h45.6l-4.7,4.1c-0.2,0.2-0.2,0.5,0,0.7  c0.2,0.2,0.5,0.2,0.7,0l5.7-5c0,0,0,0,0,0c0,0,0.1-0.1,0.1-0.1c0,0,0,0,0,0c0-0.1,0-0.1,0-0.2s0-0.1,0-0.2c0,0,0,0,0,0  c0,0-0.1-0.1-0.1-0.1c0,0,0,0,0,0l-5.7-5C41.9-0.1,41.5,0,41.4,0.2z"/>
</svg>